<svg height="512pt" viewBox="0 -76 512 512" width="512pt" xmlns="http://www.w3.org/2000/svg"><path d="m405.96875 0c-57.914062 0-105.027344 47.117188-105.027344 105.03125 0 12.070312-4.65625 23.382812-13.09375 31.832031-8.464844 8.449219-19.773437 13.105469-31.847656 13.105469s-23.382812-4.65625-31.832031-13.09375c-8.453125-8.460938-13.109375-19.773438-13.109375-31.84375 0-57.914062-47.5625-105.03125-106.027344-105.03125-57.914062 0-105.03125 47.117188-105.03125 105.03125 0 67.542969 26.863281 131.597656 75.636719 180.355469 48.117187 48.132812 112.171875 74.644531 180.363281 74.644531s132.246094-26.507812 180.359375-74.640625c48.777344-48.761719 75.640625-112.8125 75.640625-180.359375 0-57.914062-47.566406-105.03125-106.03125-105.03125zm9.171875 264.171875c-42.449219 42.464844-98.96875 65.851563-159.140625 65.851563s-116.691406-23.386719-159.144531-65.855469c-43.105469-43.09375-66.847657-99.609375-66.847657-159.136719 0-41.367188 33.65625-75.023438 75.023438-75.023438 41.917969 0 76.019531 33.65625 76.019531 75.023438 0 20.078125 7.773438 38.921875 21.898438 53.0625 14.128906 14.113281 32.96875 21.882812 53.050781 21.882812s38.921875-7.769531 53.066406-21.894531c14.109375-14.128906 21.882813-32.972656 21.882813-53.050781 0-41.367188 33.652343-75.023438 75.019531-75.023438 41.917969 0 76.023438 33.65625 76.023438 75.023438 0 59.527344-23.742188 116.042969-66.851563 159.140625zm0 0"/></svg>